<svg width="20" height="20" viewBox="0 0 20 20" fill="none" xmlns="http://www.w3.org/2000/svg">
<path d="M9.85498 1.66663L9.85498 1.04163L9.85494 1.04163L9.85498 1.66663ZM14.9282 6.73889L15.5532 6.73889L15.5532 6.73887L14.9282 6.73889ZM16.3765 12.4039L17.0015 12.4039L17.0015 12.4039L16.3765 12.4039ZM14.0991 15.0699L14.185 15.689L14.185 15.689L14.0991 15.0699ZM9.85498 15.4352L9.85497 16.0602L9.85498 16.0602L9.85498 15.4352ZM5.61084 15.0699L5.525 15.689L5.525 15.689L5.61084 15.0699ZM3.3335 12.4039L2.7085 12.4039L2.7085 12.4039L3.3335 12.4039ZM4.78271 6.73889L4.15771 6.73887V6.73889H4.78271ZM3.72214 10.989L3.18528 10.669L3.72214 10.989ZM15.9882 10.9891L15.4512 11.3089L15.9882 10.9891ZM9.85498 1.66663V2.29163C12.3113 2.29163 14.3031 4.28285 14.3032 6.73892L14.9282 6.73889L15.5532 6.73887C15.5531 3.59222 13.0014 1.04163 9.85498 1.04163V1.66663ZM14.9282 6.73889H14.3032V8.48249H14.9282H15.5532V6.73889H14.9282ZM15.9882 10.9891L15.4512 11.3089C15.6418 11.6289 15.7514 12.0027 15.7515 12.404L16.3765 12.4039L17.0015 12.4039C17.0014 11.7714 16.8278 11.1774 16.5252 10.6693L15.9882 10.9891ZM16.3765 12.4039L15.7515 12.4039C15.7515 13.4426 15.0127 14.3123 14.0133 14.4509L14.0991 15.0699L14.185 15.689C15.8317 15.4607 17.0015 14.0367 17.0015 12.4039L16.3765 12.4039ZM14.0991 15.0699L14.0133 14.4509C12.7046 14.6323 11.0982 14.8102 9.85498 14.8102L9.85498 15.4352L9.85498 16.0602C11.1888 16.0602 12.866 15.8719 14.185 15.689L14.0991 15.0699ZM9.85498 15.4352L9.85499 14.8102C8.61168 14.8102 7.00537 14.6323 5.69668 14.4509L5.61084 15.0699L5.525 15.689C6.84399 15.8719 8.52114 16.0602 9.85497 16.0602L9.85498 15.4352ZM5.61084 15.0699L5.69668 14.4509C4.69723 14.3123 3.9585 13.4426 3.9585 12.4039L3.3335 12.4039L2.7085 12.4039C2.7085 14.0367 3.87827 15.4607 5.525 15.689L5.61084 15.0699ZM3.3335 12.4039L3.9585 12.404C3.95854 12.0027 4.06828 11.6289 4.25899 11.309L3.72214 10.989L3.18528 10.669C2.88239 11.1771 2.70856 11.7712 2.7085 12.4039L3.3335 12.4039ZM4.78271 8.48212H5.40771V6.73889H4.78271H4.15771V8.48212H4.78271ZM4.78271 6.73889L5.40771 6.73892C5.40781 4.28284 7.39892 2.29178 9.85502 2.29163L9.85498 1.66663L9.85494 1.04163C6.70858 1.04182 4.15784 3.59245 4.15771 6.73887L4.78271 6.73889ZM3.72214 10.989L4.25899 11.309C4.47114 10.9531 4.76766 10.504 4.98772 10.0632C5.216 9.60582 5.40771 9.07622 5.40771 8.48212H4.78271H4.15771C4.15771 8.80507 4.05392 9.13504 3.8693 9.50493C3.67645 9.89129 3.44269 10.2371 3.18528 10.669L3.72214 10.989ZM14.9282 8.48249H14.3032C14.3032 9.07646 14.4949 9.60597 14.723 10.0632C14.9429 10.504 15.2393 10.9531 15.4512 11.3089L15.9882 10.9891L16.5252 10.6693C16.2679 10.2373 16.0343 9.89159 15.8415 9.50518C15.657 9.1353 15.5532 8.80538 15.5532 8.48249H14.9282Z" fill="#1D1B20"/>
<path d="M11.667 17.3616C11.2775 17.9473 10.6115 18.3334 9.8554 18.3334C9.09925 18.3334 8.43327 17.9473 8.04381 17.3616" stroke="#1D1B20" stroke-width="1.25" stroke-linecap="round"/>
</svg>
